<?xml version="1.0" encoding="UTF-8" standalone="no"?>
<!DOCTYPE svg PUBLIC "-//W3C//DTD SVG 20010904//EN"
              "http://www.w3.org/TR/2001/REC-SVG-20010904/DTD/svg10.dtd">

<svg xmlns="http://www.w3.org/2000/svg"
     width="1.87333in" height="1.67in"
     viewBox="0 0 562 501">
  <path id="Good"
        fill="none" stroke="black" stroke-width="1"
        d="M 325.31,245.11
           C 324.89,245.25 323.71,246.07 321.75,247.58
             319.79,249.08 318.15,250.42 316.83,251.61
             316.83,251.61 316.83,275.33 316.83,275.33
             311.55,282.08 304.12,287.80 294.55,292.48
             284.88,297.22 276.17,299.59 268.42,299.59
             260.68,299.59 254.02,298.44 248.44,296.14
             242.85,293.84 238.10,290.66 234.19,286.61
             226.21,278.23 222.22,267.17 222.22,253.45
             222.22,243.34 224.09,235.12 227.83,228.78
             233.25,219.12 241.62,211.00 252.92,204.44
             264.17,197.93 275.40,194.67 286.61,194.67
             294.32,194.67 302.09,195.86 309.92,198.22
             313.02,199.14 315.60,200.25 317.66,201.56
             318.10,201.89 318.33,202.23 318.33,202.59
             318.33,202.96 317.96,203.48 317.23,204.14
             316.50,204.80 315.58,205.55 314.47,206.39
             313.35,207.23 312.13,208.12 310.81,209.03
             309.49,209.94 308.24,210.78 307.06,211.55
             304.64,213.20 303.05,214.17 302.27,214.48
             302.32,214.35 302.48,214.17 302.75,213.94
             303.02,213.71 303.32,213.46 303.64,213.19
             304.41,212.46 304.80,211.87 304.80,211.41
             304.80,209.64 301.68,207.98 295.44,206.42
             288.78,204.73 281.69,203.89 274.17,203.89
             266.65,203.89 260.54,204.80 255.84,206.62
             251.16,208.45 247.30,211.09 244.30,214.56
             238.52,221.30 235.62,231.33 235.62,244.64
             235.62,257.54 239.45,268.25 247.11,276.77
             255.08,285.70 265.42,290.16 278.14,290.16
             285.80,290.16 292.56,289.16 298.44,287.16
             300.62,286.39 302.38,285.41 303.70,284.22
             303.70,284.22 303.70,254.48 303.70,254.48
             303.70,254.48 284.09,254.48 284.09,254.48
             284.09,254.48 286.69,252.30 286.69,252.30
             292.56,247.51 296.11,245.11 297.34,245.11
             297.34,245.11 325.31,245.11 325.31,245.11 Z
           M 390.03,237.94
           C 392.35,240.59 394.16,243.61 395.45,247.00
             396.75,250.40 397.41,253.80 397.41,257.22
             397.41,260.64 396.91,263.98 395.91,267.23
             394.91,270.48 393.50,273.62 391.70,276.62
             389.90,279.64 387.78,282.45 385.34,285.08
             382.91,287.70 380.23,289.98 377.31,291.94
             371.11,296.09 364.85,298.16 358.52,298.16
             351.09,298.16 344.77,295.27 339.58,289.48
             334.52,283.92 331.98,277.40 331.98,269.92
             331.98,263.55 333.92,257.15 337.80,250.72
             343.59,240.97 351.47,234.39 361.45,230.97
             364.64,229.82 368.01,229.25 371.56,229.25
             375.12,229.25 378.51,230.04 381.72,231.61
             384.94,233.18 387.71,235.29 390.03,237.94 Z
           M 357.69,238.42
           C 353.13,238.42 349.81,240.63 347.72,245.05
             346.07,248.51 345.25,252.42 345.25,256.80
             345.25,261.17 345.83,265.24 346.98,269.00
             348.15,272.76 349.88,276.12 352.16,279.09
             357.22,285.74 363.73,289.06 371.70,289.06
             376.36,289.06 379.73,286.74 381.83,282.09
             383.33,278.64 384.08,274.65 384.08,270.14
             384.08,261.34 381.63,253.86 376.73,247.69
             371.84,241.51 365.49,238.42 357.69,238.42 Z
           M 465.03,237.94
           C 467.35,240.59 469.16,243.61 470.45,247.00
             471.75,250.40 472.41,253.80 472.41,257.22
             472.41,260.64 471.91,263.98 470.91,267.23
             469.91,270.48 468.50,273.62 466.70,276.62
             464.90,279.64 462.78,282.45 460.34,285.08
             457.91,287.70 455.23,289.98 452.31,291.94
             446.11,296.09 439.85,298.16 433.52,298.16
             426.09,298.16 419.77,295.27 414.58,289.48
             409.52,283.92 406.98,277.40 406.98,269.92
             406.98,263.55 408.92,257.15 412.80,250.72
             418.59,240.97 426.47,234.39 436.45,230.97
             439.64,229.82 443.01,229.25 446.56,229.25
             450.12,229.25 453.51,230.04 456.72,231.61
             459.94,233.18 462.71,235.29 465.03,237.94 Z
           M 432.69,238.42
           C 428.13,238.42 424.81,240.63 422.72,245.05
             421.07,248.51 420.25,252.42 420.25,256.80
             420.25,261.17 420.83,265.24 421.98,269.00
             423.15,272.76 424.88,276.12 427.16,279.09
             432.22,285.74 438.73,289.06 446.70,289.06
             451.36,289.06 454.73,286.74 456.83,282.09
             458.33,278.64 459.08,274.65 459.08,270.14
             459.08,261.34 456.63,253.86 451.73,247.69
             446.84,241.51 440.49,238.42 432.69,238.42 Z
           M 504.83,234.80
           C 508.02,233.02 511.36,231.64 514.88,230.66
             518.38,229.68 521.34,229.19 523.75,229.19
             526.16,229.19 528.29,229.35 530.11,229.67
             530.11,229.67 530.11,207.25 530.11,207.25
             530.11,202.37 529.22,199.12 527.45,197.53
             526.63,196.80 525.62,196.44 524.44,196.44
             523.03,196.44 520.96,196.78 518.22,197.47
             529.66,188.76 538.04,183.04 543.38,180.31
             543.38,180.31 543.38,278.06 543.38,278.06
             543.38,281.75 543.77,284.19 544.55,285.38
             545.91,287.66 548.28,288.80 551.66,288.80
             553.02,288.80 554.36,288.66 555.69,288.39
             554.36,289.43 553.05,290.53 551.75,291.67
             550.45,292.81 549.09,293.86 547.69,294.81
             544.45,297.00 541.60,298.09 539.14,298.09
             536.68,298.09 534.91,297.86 533.84,297.41
             532.77,296.95 531.94,296.29 531.34,295.42
             530.44,294.10 529.98,291.62 529.98,287.97
             520.64,294.91 513.14,298.38 507.48,298.38
             499.15,298.38 492.77,295.59 488.34,290.03
             484.25,284.93 482.20,278.09 482.20,269.52
             482.20,262.50 484.39,255.80 488.77,249.42
             492.82,243.36 498.17,238.48 504.83,234.80 Z
           M 530.11,248.33
           C 528.07,245.05 525.41,242.56 522.12,240.88
             518.84,239.19 515.42,238.34 511.86,238.34
             508.30,238.34 505.48,238.95 503.39,240.16
             501.30,241.37 499.66,242.98 498.47,244.98
             496.41,248.45 495.39,252.78 495.39,258.00
             495.39,263.22 495.84,267.59 496.75,271.12
             497.66,274.66 499.10,277.77 501.06,280.45
             505.34,286.25 511.61,289.14 519.86,289.14
             521.64,289.14 523.39,288.62 525.12,287.56
             528.45,285.65 530.11,283.85 530.11,282.17
             530.11,282.17 530.11,248.33 530.11,248.33 Z
           M 201.97,99.92
           C 209.39,93.73 213.82,90.62 215.23,90.62
             215.23,90.62 274.91,90.62 274.91,90.62
             274.27,90.72 273.30,91.34 272.00,92.48
             270.70,93.62 269.59,94.59 268.67,95.39
             267.77,96.18 266.88,96.90 266.02,97.53
             263.96,99.12 262.48,99.92 261.58,99.92
             261.58,99.92 228.08,99.92 228.08,99.92
             228.08,99.92 228.08,137.11 228.08,137.11
             228.08,137.11 261.23,137.11 261.23,137.11
             260.64,137.20 259.68,137.84 258.36,139.00
             257.04,140.16 255.91,141.12 255.00,141.91
             254.09,142.68 253.21,143.41 252.34,144.09
             250.34,145.69 248.86,146.48 247.91,146.48
             247.91,146.48 228.08,146.48 228.08,146.48
             228.08,146.48 228.08,162.47 228.08,162.47
             228.08,170.68 226.44,176.42 223.16,179.70
             223.16,179.70 245.09,179.70 245.09,179.70
             244.46,179.80 243.49,180.41 242.19,181.55
             240.89,182.68 239.79,183.65 238.88,184.45
             237.97,185.26 237.08,186.00 236.22,186.67
             234.16,188.23 232.68,189.00 231.77,189.00
             231.77,189.00 208.59,189.00 208.59,189.00
             212.70,182.62 214.75,177.17 214.75,172.66
             214.75,172.66 214.75,146.48 214.75,146.48
             214.75,146.48 205.17,146.48 205.17,146.48
             208.37,143.93 211.56,141.42 214.75,138.95
             214.75,138.95 214.75,99.92 214.75,99.92
             214.75,99.92 201.97,99.92 201.97,99.92 Z
           M 319.02,176.36
           C 312.77,183.33 305.02,187.68 295.77,189.41
             293.63,189.77 290.99,189.95 287.84,189.95
             284.70,189.95 281.73,189.08 278.95,187.33
             276.17,185.57 273.89,183.30 272.12,180.52
             268.75,175.14 267.06,168.58 267.06,160.83
             267.06,155.73 269.02,150.07 272.94,143.88
             276.77,137.77 281.44,132.67 286.95,128.56
             292.88,124.19 298.48,122.00 303.77,122.00
             306.50,122.00 308.80,123.01 310.67,125.02
             312.40,126.98 313.27,129.21 313.27,131.72
             313.27,134.22 312.72,136.53 311.62,138.66
             310.53,140.77 309.10,142.84 307.34,144.84
             305.59,146.84 303.59,148.77 301.33,150.62
             299.08,152.47 296.77,154.19 294.41,155.78
             291.07,158.05 286.88,160.62 281.83,163.50
             283.29,169.01 285.86,173.26 289.55,176.25
             293.24,179.24 298.01,180.73 303.84,180.73
             308.76,180.73 313.82,179.28 319.02,176.36 Z
           M 298.38,148.94
           C 299.60,146.98 300.22,145.07 300.22,143.20
             300.22,141.33 300.01,139.75 299.59,138.45
             299.19,137.15 298.60,136.00 297.83,135.00
             296.05,132.72 293.74,131.58 290.92,131.58
             283.99,131.58 280.53,138.64 280.53,152.77
             280.53,155.28 280.73,157.76 281.14,160.22
             289.16,157.99 294.91,154.23 298.38,148.94 Z
           M 365.61,130.89
           C 365.93,130.66 366.45,130.27 367.16,129.70
             367.86,129.13 368.66,128.51 369.55,127.83
             370.43,127.14 371.35,126.42 372.31,125.67
             373.27,124.91 374.18,124.23 375.05,123.64
             377.00,122.23 378.20,121.53 378.62,121.53
             379.06,121.53 379.60,122.03 380.23,123.03
             380.88,124.03 381.51,125.18 382.12,126.48
             382.74,127.79 383.29,129.04 383.77,130.25
             384.24,131.46 385.19,133.84 386.59,137.39
             390.24,146.51 393.91,158.49 397.61,173.34
             402.89,163.64 406.13,156.76 407.34,152.70
             408.55,148.64 409.16,145.80 409.16,144.19
             409.16,142.57 409.05,141.09 408.84,139.75
             408.64,138.41 408.32,137.14 407.86,135.95
             406.67,133.08 404.94,131.64 402.67,131.64
             401.58,131.64 400.50,131.94 399.45,132.53
             400.64,131.94 401.89,131.07 403.20,129.94
             404.52,128.80 405.88,127.69 407.25,126.59
             410.66,123.86 413.19,122.48 414.83,122.48
             416.47,122.48 417.74,122.81 418.62,123.45
             419.51,124.09 420.25,124.88 420.84,125.83
             421.94,127.70 422.48,130.17 422.48,133.22
             422.48,136.27 421.88,139.75 420.67,143.64
             419.46,147.54 417.93,151.40 416.06,155.23
             413.78,160.02 411.02,165.00 407.78,170.17
             404.55,175.34 402.62,178.47 401.98,179.56
             401.35,180.66 400.79,181.51 400.31,182.12
             399.83,182.74 399.30,183.29 398.70,183.77
             398.11,184.25 397.38,184.78 396.52,185.38
             395.65,185.97 394.71,186.61 393.70,187.30
             392.70,187.98 391.73,188.62 390.80,189.23
             389.87,189.85 389.02,190.41 388.27,190.91
             387.52,191.41 386.96,191.79 386.59,192.02
             382.91,176.42 379.58,164.32 376.62,155.70
             374.75,160.40 372.62,165.11 370.25,169.83
             367.88,174.55 366.41,177.58 365.81,178.92
             365.23,180.27 364.71,181.28 364.25,181.97
             363.79,182.65 363.27,183.21 362.67,183.67
             362.08,184.12 361.35,184.66 360.48,185.28
             359.62,185.90 358.67,186.56 357.64,187.27
             356.62,187.96 355.63,188.64 354.67,189.28
             352.71,190.51 351.32,191.42 350.50,192.02
             350.19,190.64 349.78,188.73 349.28,186.30
             348.78,183.86 348.16,181.09 347.44,178.00
             346.71,174.90 345.89,171.59 345.00,168.08
             344.11,164.57 343.12,161.09 342.03,157.66
             340.94,154.22 339.77,150.92 338.55,147.75
             337.32,144.59 335.99,141.79 334.58,139.38
             331.57,134.09 328.56,131.44 325.56,131.44
             324.14,131.44 322.75,131.90 321.39,132.81
             325.58,128.44 330.07,125.23 334.86,123.17
             336.59,122.45 338.00,122.08 339.09,122.08
             340.69,122.08 342.04,122.55 343.16,123.48
             344.27,124.41 345.44,125.97 346.67,128.16
             347.91,130.34 349.11,132.90 350.27,135.81
             351.43,138.73 352.56,141.84 353.66,145.16
             354.75,148.46 355.75,151.68 356.66,154.81
             357.94,159.24 359.30,164.28 360.77,169.92
             361.63,167.87 362.56,165.66 363.56,163.30
             364.56,160.92 365.49,158.51 366.36,156.05
             368.37,150.27 369.38,145.30 369.38,141.16
             369.38,137.00 368.12,133.58 365.61,130.89 Z
           M 0.23,297.75
           C 11.05,288.90 17.36,284.47 19.19,284.47
             19.19,284.47 129.34,284.47 129.34,284.47
             128.50,284.61 126.52,286.04 123.39,288.78
             120.27,291.51 118.08,293.36 116.84,294.33
             113.85,296.61 111.71,297.75 110.41,297.75
             110.41,297.75 70.36,297.75 70.36,297.75
             70.36,297.75 70.36,387.11 70.36,387.11
             70.36,394.98 69.02,401.50 66.36,406.64
             65.18,408.85 63.88,410.54 62.45,411.72
             62.45,411.72 94.67,411.72 94.67,411.72
             93.77,411.84 91.75,413.28 88.62,416.02
             85.50,418.75 83.32,420.60 82.08,421.58
             79.09,423.86 76.94,425.00 75.64,425.00
             75.64,425.00 41.66,425.00 41.66,425.00
             45.56,421.48 48.00,418.52 48.97,416.11
             50.53,412.27 51.31,407.45 51.31,401.66
             51.31,401.66 51.31,297.75 51.31,297.75
             51.31,297.75 0.23,297.75 0.23,297.75 Z
           M 187.53,396.09
           C 187.53,396.09 187.34,402.92 187.34,402.92
             187.34,408.01 188.77,411.23 191.64,412.59
             192.74,413.12 194.02,413.38 195.45,413.38
             197.72,413.38 200.07,412.86 202.48,411.81
             200.00,412.86 197.85,414.23 196.03,415.92
             194.21,417.61 192.35,419.27 190.47,420.89
             185.78,424.81 181.06,426.77 176.31,426.77
             171.55,426.77 169.01,424.03 168.69,418.55
             168.56,417.12 168.50,415.69 168.50,414.25
             156.78,422.40 146.04,426.47 136.27,426.47
             127.99,426.47 122.27,423.96 119.08,418.94
             117.91,417.12 117.33,414.61 117.33,411.42
             117.33,408.23 118.30,405.03 120.25,401.81
             122.21,398.59 124.68,395.64 127.67,392.97
             133.02,388.02 139.46,383.95 147.02,380.77
             152.61,378.35 159.80,376.98 168.59,376.66
             168.59,376.66 168.59,372.36 168.59,372.36
             168.59,362.01 167.64,355.01 165.75,351.36
             163.86,347.71 161.42,345.03 158.42,343.31
             155.43,341.59 151.92,340.72 147.89,340.72
             141.05,340.72 135.04,342.05 129.83,344.72
             136.98,338.80 142.22,334.90 145.55,333.00
             152.38,329.17 158.58,327.25 164.14,327.25
             169.71,327.25 173.89,328.06 176.69,329.69
             179.49,331.31 181.71,333.46 183.34,336.12
             186.13,340.81 187.53,347.55 187.53,356.34
             187.53,356.34 187.53,396.09 187.53,396.09 Z
           M 141.64,410.11
           C 143.20,411.25 145.02,412.07 147.11,412.59
             149.19,413.12 152.28,413.38 156.38,413.38
             160.48,413.38 164.55,412.40 168.59,410.45
             168.59,410.45 168.59,389.94 168.59,389.94
             168.59,389.94 152.77,389.94 152.77,389.94
             147.11,389.94 142.16,390.33 137.92,391.11
             137.08,393.91 136.66,396.59 136.66,399.12
             136.66,401.66 137.09,403.84 137.97,405.66
             138.85,407.48 140.08,408.96 141.64,410.11 Z
           M 219.59,340.33
           C 219.59,340.33 232.28,330.38 232.28,330.38
             232.28,330.38 232.28,316.50 232.28,316.50
             235.80,314.03 238.30,312.15 239.80,310.84
             241.30,309.54 242.57,308.60 243.61,308.02
             244.65,307.42 245.73,306.80 246.84,306.16
             249.63,304.52 251.13,303.54 251.33,303.22
             251.33,303.22 251.33,327.05 251.33,327.05
             251.33,327.05 282.58,327.05 282.58,327.05
             281.73,327.11 279.59,328.67 276.14,331.73
             269.55,337.46 265.39,340.33 263.64,340.33
             263.64,340.33 251.33,340.33 251.33,340.33
             251.33,340.33 251.33,392.67 251.33,392.67
             251.33,404.65 254.78,411.59 261.69,413.47
             263.77,413.99 265.72,414.25 267.55,414.25
             270.54,414.25 273.07,413.81 275.16,412.94
             277.24,412.06 278.96,411.27 280.33,410.55
             276.36,416.60 270.80,421.22 263.64,424.41
             259.92,426.04 255.93,426.86 251.67,426.86
             247.41,426.86 244.11,426.11 241.77,424.61
             239.42,423.11 237.53,421.16 236.09,418.75
             233.55,414.32 232.28,408.46 232.28,401.17
             232.28,401.17 232.28,340.33 232.28,340.33
             232.28,340.33 219.59,340.33 219.59,340.33 Z
           M 373.45,406.94
           C 364.52,416.90 353.46,423.12 340.25,425.59
             337.19,426.11 333.41,426.38 328.91,426.38
             324.41,426.38 320.19,425.12 316.22,422.61
             312.25,420.10 308.99,416.86 306.45,412.89
             301.64,405.20 299.23,395.83 299.23,384.77
             299.23,377.48 302.03,369.40 307.62,360.55
             313.09,351.82 319.77,344.53 327.64,338.67
             336.11,332.42 344.12,329.30 351.67,329.30
             355.58,329.30 358.86,330.73 361.53,333.59
             364.01,336.40 365.25,339.59 365.25,343.17
             365.25,346.75 364.47,350.05 362.91,353.08
             361.34,356.10 359.30,359.04 356.80,361.91
             354.29,364.77 351.42,367.53 348.20,370.17
             344.98,372.81 341.68,375.26 338.30,377.53
             333.54,380.79 327.55,384.48 320.33,388.58
             322.41,396.45 326.09,402.53 331.36,406.80
             336.63,411.06 343.43,413.19 351.77,413.19
             358.80,413.19 366.02,411.11 373.45,406.94 Z
           M 343.95,367.77
           C 345.71,364.98 346.59,362.25 346.59,359.58
             346.59,356.90 346.30,354.64 345.70,352.78
             345.12,350.93 344.27,349.28 343.17,347.84
             340.63,344.59 337.34,342.97 333.31,342.97
             323.41,342.97 318.47,353.06 318.47,373.23
             318.47,376.82 318.76,380.37 319.34,383.89
             330.80,380.70 339.00,375.32 343.95,367.77 Z
           M 481.73,330.08
           C 473.85,341.66 464.30,347.45 453.11,347.45
             451.29,347.45 448.94,346.74 446.08,345.31
             440.61,342.57 436.91,341.20 435.00,341.20
             433.08,341.20 431.54,341.82 430.36,343.06
             429.19,344.30 428.22,346.03 427.44,348.23
             425.68,353.06 424.80,359.31 424.80,366.98
             424.80,366.98 424.80,404.39 424.80,404.39
             424.80,408.56 426.07,411.39 428.61,412.89
             429.52,413.48 430.65,413.77 432.02,413.77
             433.39,413.77 434.82,413.45 436.31,412.80
             435.01,413.96 433.74,415.34 432.50,416.94
             431.27,418.53 429.88,420.08 428.31,421.58
             424.60,425.16 420.21,426.95 415.12,426.95
             412.52,426.95 410.30,426.12 408.48,424.47
             406.66,422.80 405.75,420.77 405.75,418.36
             405.75,418.36 405.75,362.11 405.75,362.11
             405.75,359.83 405.78,357.55 405.84,355.28
             405.91,353.00 405.69,350.91 405.17,349.02
             403.93,344.92 400.38,342.88 394.52,342.88
             391.72,342.88 388.93,343.40 386.12,344.44
             387.81,343.84 389.99,342.31 392.67,339.84
             397.88,335.16 401.49,332.42 403.50,331.64
             407.66,330.14 411.04,329.39 413.61,329.39
             416.18,329.39 418.16,329.77 419.56,330.52
             420.97,331.27 422.06,332.29 422.84,333.59
             424.14,335.74 424.80,339.06 424.80,343.55
             426.68,342.12 428.74,340.51 430.98,338.72
             433.23,336.93 435.57,335.22 437.98,333.59
             443.77,329.75 448.82,327.83 453.11,327.83
             455.65,327.83 458.32,328.55 461.12,329.98
             463.93,331.41 466.01,332.45 467.38,333.11
             468.74,333.76 470.01,334.08 471.19,334.08
             473.79,334.08 477.30,332.75 481.73,330.08 Z
           M 531.00,349.22
           C 532.24,348.30 532.86,347.32 532.86,346.28
             532.86,345.24 532.24,344.43 531.00,343.84
             529.76,343.26 528.33,342.81 526.70,342.48
             524.16,341.96 521.80,341.70 519.62,341.70
             517.45,341.70 515.75,341.82 514.55,342.05
             513.34,342.27 512.31,342.67 511.47,343.27
             509.64,344.50 508.73,346.67 508.73,349.80
             508.73,352.92 509.41,355.48 510.78,357.47
             512.16,359.46 513.96,361.14 516.20,362.50
             518.45,363.87 521.01,365.01 523.88,365.92
             526.74,366.83 529.65,367.73 532.61,368.61
             535.58,369.48 538.49,370.45 541.36,371.48
             544.22,372.53 546.76,373.89 548.97,375.58
             553.98,379.23 556.48,384.24 556.48,390.62
             556.48,396.94 553.46,403.12 547.41,409.17
             542.26,414.32 535.49,418.68 527.09,422.27
             519.28,425.65 512.32,427.34 506.20,427.34
             498.77,427.34 492.82,425.78 488.33,422.66
             486.70,421.48 485.89,419.96 485.89,418.11
             485.89,416.26 486.73,414.56 488.42,413.03
             490.12,411.50 492.10,410.07 494.38,408.73
             496.66,407.40 498.94,406.14 501.22,404.94
             503.50,403.73 505.22,402.45 506.39,401.08
             505.22,402.38 504.64,403.84 504.64,405.47
             504.64,407.09 505.55,408.48 507.38,409.62
             509.20,410.76 511.34,411.65 513.81,412.30
             518.11,413.34 522.25,413.86 526.22,413.86
             530.19,413.86 533.07,413.13 534.86,411.67
             536.65,410.20 537.55,407.75 537.55,404.30
             537.55,400.85 536.86,398.04 535.48,395.86
             534.12,393.67 532.33,391.80 530.11,390.23
             527.90,388.67 525.36,387.36 522.50,386.28
             519.63,385.21 516.72,384.17 513.77,383.16
             510.80,382.15 507.89,381.12 505.03,380.08
             502.16,379.04 499.62,377.77 497.41,376.27
             492.46,372.95 489.98,368.62 489.98,363.28
             489.98,358.20 492.98,352.76 498.97,346.97
             504.18,342.02 509.61,338.15 515.28,335.34
             524.98,330.66 532.30,328.31 537.25,328.31
             542.39,328.31 546.10,328.87 548.38,329.98
             550.66,331.09 551.80,332.05 551.80,332.86
             551.80,333.67 551.54,334.41 551.02,335.06
             550.49,335.71 549.86,336.31 549.11,336.86
             548.37,337.41 547.61,337.92 546.83,338.38
             546.05,338.84 544.94,339.52 543.50,340.44
             542.07,341.34 540.15,342.56 537.73,344.09
             535.33,345.62 533.08,347.34 531.00,349.22 Z
           M 49.83,259.81
           C 50.46,259.72 54.05,259.67 60.61,259.67
             71.84,259.67 80.12,258.82 85.47,257.11
             90.82,255.40 94.66,253.83 97.00,252.39
             93.68,254.91 90.62,257.25 87.84,259.41
             81.82,264.07 76.99,267.45 73.34,269.52
             69.71,271.58 66.09,273.17 62.50,274.30
             58.91,275.42 55.22,276.25 51.45,276.78
             45.88,277.59 38.29,278.00 28.67,278.00
             28.67,278.00 23.42,278.00 23.42,278.00
             23.51,277.91 23.57,277.82 23.62,277.73
             23.67,277.64 24.30,276.92 25.52,275.58
             26.73,274.23 28.49,272.27 30.83,269.72
             33.16,267.16 36.26,263.31 40.12,258.19
             43.99,253.06 48.19,246.46 52.72,238.38
             57.26,230.29 61.48,222.05 65.39,213.66
             69.30,205.25 73.06,196.73 76.66,188.11
             80.25,179.48 83.95,170.84 87.77,162.17
             91.59,153.50 95.47,144.73 99.42,135.89
             103.38,127.04 106.37,120.09 108.39,115.06
             110.41,110.03 111.58,106.89 111.89,105.64
             112.20,104.38 112.72,103.30 113.44,102.41
             113.44,102.41 103.20,102.41 103.20,102.41
             86.49,102.41 73.51,104.29 64.25,108.06
             76.64,97.28 87.02,90.50 95.39,87.70
             103.02,85.29 115.42,84.08 132.58,84.08
             132.58,84.08 139.72,84.08 139.72,84.08
             143.58,96.92 147.47,109.95 151.38,123.16
             155.28,136.37 159.21,149.57 163.17,162.78
             171.80,191.53 178.29,212.38 182.64,225.31
             187.00,238.25 189.57,245.95 190.33,248.42
             191.09,250.89 192.05,253.12 193.22,255.09
             195.82,259.41 200.00,261.56 205.75,261.56
             208.89,261.56 212.20,260.84 215.66,259.41
             219.11,257.97 221.79,256.67 223.69,255.50
             220.45,257.92 217.57,260.12 215.06,262.09
             208.59,267.04 204.46,270.08 202.66,271.20
             200.86,272.32 199.07,273.42 197.27,274.50
             195.47,275.57 193.59,276.56 191.61,277.45
             179.02,283.02 170.54,280.91 166.14,271.12
             162.99,264.21 159.22,253.14 154.81,237.91
             150.41,222.68 146.51,209.72 143.09,199.03
             135.54,204.42 119.10,206.93 93.77,206.58
             90.54,206.58 87.75,206.58 85.41,206.58
             75.26,226.88 65.38,242.38 55.77,253.06
             54.95,253.97 54.14,254.91 53.34,255.89
             51.00,258.59 49.83,259.90 49.83,259.81 Z
           M 95.92,187.84
           C 95.92,187.84 122.61,188.38 122.61,188.38
             128.18,188.38 133.84,188.20 139.59,187.84
             135.46,174.73 129.30,154.65 121.12,127.59
             112.23,147.99 103.20,168.21 94.03,188.25
             95.11,187.98 95.74,187.84 95.92,187.84 Z" />
</svg>
