<?xml version="1.0" encoding="UTF-8" standalone="no"?>
<!DOCTYPE svg PUBLIC "-//W3C//DTD SVG 20010904//EN"
              "http://www.w3.org/TR/2001/REC-SVG-20010904/DTD/svg10.dtd">

<svg xmlns="http://www.w3.org/2000/svg"
     width="1.87333in" height="1.67in"
     viewBox="0 0 562 501">
  <path id="A"
        fill="none" stroke="black" stroke-width="1"
        d="M 49.83,259.81
           C 50.46,259.72 54.05,259.67 60.61,259.67
             71.84,259.67 80.12,258.82 85.47,257.11
             90.82,255.40 94.66,253.83 97.00,252.39
             93.68,254.91 90.62,257.25 87.84,259.41
             81.82,264.07 76.99,267.45 73.34,269.52
             69.71,271.58 66.09,273.17 62.50,274.30
             58.91,275.42 55.22,276.25 51.45,276.78
             45.88,277.59 38.29,278.00 28.67,278.00
             28.67,278.00 23.42,278.00 23.42,278.00
             23.51,277.91 23.57,277.82 23.62,277.73
             23.67,277.64 24.30,276.92 25.52,275.58
             26.73,274.23 28.49,272.27 30.83,269.72
             33.16,267.16 36.26,263.31 40.12,258.19
             43.99,253.06 48.19,246.46 52.72,238.38
             57.26,230.29 61.48,222.05 65.39,213.66
             69.30,205.25 73.06,196.73 76.66,188.11
             80.25,179.48 83.95,170.84 87.77,162.17
             91.59,153.50 95.47,144.73 99.42,135.89
             103.38,127.04 106.37,120.09 108.39,115.06
             110.41,110.03 111.58,106.89 111.89,105.64
             112.20,104.38 112.72,103.30 113.44,102.41
             113.44,102.41 103.20,102.41 103.20,102.41
             86.49,102.41 73.51,104.29 64.25,108.06
             76.64,97.28 87.02,90.50 95.39,87.70
             103.02,85.29 115.42,84.08 132.58,84.08
             132.58,84.08 139.72,84.08 139.72,84.08
             143.58,96.92 147.47,109.95 151.38,123.16
             155.28,136.37 159.21,149.57 163.17,162.78
             171.80,191.53 178.29,212.38 182.64,225.31
             187.00,238.25 189.57,245.95 190.33,248.42
             191.09,250.89 192.05,253.12 193.22,255.09
             195.82,259.41 200.00,261.56 205.75,261.56
             208.89,261.56 212.20,260.84 215.66,259.41
             219.11,257.97 221.79,256.67 223.69,255.50
             220.45,257.92 217.57,260.12 215.06,262.09
             208.59,267.04 204.46,270.08 202.66,271.20
             200.86,272.32 199.07,273.42 197.27,274.50
             195.47,275.57 193.59,276.56 191.61,277.45
             179.02,283.02 170.54,280.91 166.14,271.12
             162.99,264.21 159.22,253.14 154.81,237.91
             150.41,222.68 146.51,209.72 143.09,199.03
             135.54,204.42 119.10,206.93 93.77,206.58
             90.54,206.58 87.75,206.58 85.41,206.58
             75.26,226.88 65.38,242.38 55.77,253.06
             54.95,253.97 54.14,254.91 53.34,255.89
             51.00,258.59 49.83,259.90 49.83,259.81 Z
           M 95.92,187.84
           C 95.92,187.84 122.61,188.38 122.61,188.38
             128.18,188.38 133.84,188.20 139.59,187.84
             135.46,174.73 129.30,154.65 121.12,127.59
             112.23,147.99 103.20,168.21 94.03,188.25
             95.11,187.98 95.74,187.84 95.92,187.84 Z
           M 0.23,297.75
           C 11.05,288.90 17.36,284.47 19.19,284.47
             19.19,284.47 129.34,284.47 129.34,284.47
             128.50,284.61 126.52,286.04 123.39,288.78
             120.27,291.51 118.08,293.36 116.84,294.33
             113.85,296.61 111.71,297.75 110.41,297.75
             110.41,297.75 70.36,297.75 70.36,297.75
             70.36,297.75 70.36,387.11 70.36,387.11
             70.36,394.98 69.02,401.50 66.36,406.64
             65.18,408.85 63.88,410.54 62.45,411.72
             62.45,411.72 94.67,411.72 94.67,411.72
             93.77,411.84 91.75,413.28 88.62,416.02
             85.50,418.75 83.32,420.60 82.08,421.58
             79.09,423.86 76.94,425.00 75.64,425.00
             75.64,425.00 41.66,425.00 41.66,425.00
             45.56,421.48 48.00,418.52 48.97,416.11
             50.53,412.27 51.31,407.45 51.31,401.66
             51.31,401.66 51.31,297.75 51.31,297.75
             51.31,297.75 0.23,297.75 0.23,297.75 Z
           M 187.53,396.09
           C 187.53,396.09 187.34,402.92 187.34,402.92
             187.34,408.01 188.77,411.23 191.64,412.59
             192.74,413.12 194.02,413.38 195.45,413.38
             197.72,413.38 200.07,412.86 202.48,411.81
             200.00,412.86 197.85,414.23 196.03,415.92
             194.21,417.61 192.35,419.27 190.47,420.89
             185.78,424.81 181.06,426.77 176.31,426.77
             171.55,426.77 169.01,424.03 168.69,418.55
             168.56,417.12 168.50,415.69 168.50,414.25
             156.78,422.40 146.04,426.47 136.27,426.47
             127.99,426.47 122.27,423.96 119.08,418.94
             117.91,417.12 117.33,414.61 117.33,411.42
             117.33,408.23 118.30,405.03 120.25,401.81
             122.21,398.59 124.68,395.64 127.67,392.97
             133.02,388.02 139.46,383.95 147.02,380.77
             152.61,378.35 159.80,376.98 168.59,376.66
             168.59,376.66 168.59,372.36 168.59,372.36
             168.59,362.01 167.64,355.01 165.75,351.36
             163.86,347.71 161.42,345.03 158.42,343.31
             155.43,341.59 151.92,340.72 147.89,340.72
             141.05,340.72 135.04,342.05 129.83,344.72
             136.98,338.80 142.22,334.90 145.55,333.00
             152.38,329.17 158.58,327.25 164.14,327.25
             169.71,327.25 173.89,328.06 176.69,329.69
             179.49,331.31 181.71,333.46 183.34,336.12
             186.13,340.81 187.53,347.55 187.53,356.34
             187.53,356.34 187.53,396.09 187.53,396.09 Z
           M 141.64,410.11
           C 143.20,411.25 145.02,412.07 147.11,412.59
             149.19,413.12 152.28,413.38 156.38,413.38
             160.48,413.38 164.55,412.40 168.59,410.45
             168.59,410.45 168.59,389.94 168.59,389.94
             168.59,389.94 152.77,389.94 152.77,389.94
             147.11,389.94 142.16,390.33 137.92,391.11
             137.08,393.91 136.66,396.59 136.66,399.12
             136.66,401.66 137.09,403.84 137.97,405.66
             138.85,407.48 140.08,408.96 141.64,410.11 Z
           M 219.59,340.33
           C 219.59,340.33 232.28,330.38 232.28,330.38
             232.28,330.38 232.28,316.50 232.28,316.50
             235.80,314.03 238.30,312.15 239.80,310.84
             241.30,309.54 242.57,308.60 243.61,308.02
             244.65,307.42 245.73,306.80 246.84,306.16
             249.63,304.52 251.13,303.54 251.33,303.22
             251.33,303.22 251.33,327.05 251.33,327.05
             251.33,327.05 282.58,327.05 282.58,327.05
             281.73,327.11 279.59,328.67 276.14,331.73
             269.55,337.46 265.39,340.33 263.64,340.33
             263.64,340.33 251.33,340.33 251.33,340.33
             251.33,340.33 251.33,392.67 251.33,392.67
             251.33,404.65 254.78,411.59 261.69,413.47
             263.77,413.99 265.72,414.25 267.55,414.25
             270.54,414.25 273.07,413.81 275.16,412.94
             277.24,412.06 278.96,411.27 280.33,410.55
             276.36,416.60 270.80,421.22 263.64,424.41
             259.92,426.04 255.93,426.86 251.67,426.86
             247.41,426.86 244.11,426.11 241.77,424.61
             239.42,423.11 237.53,421.16 236.09,418.75
             233.55,414.32 232.28,408.46 232.28,401.17
             232.28,401.17 232.28,340.33 232.28,340.33
             232.28,340.33 219.59,340.33 219.59,340.33 Z
           M 373.45,406.94
           C 364.52,416.90 353.46,423.12 340.25,425.59
             337.19,426.11 333.41,426.38 328.91,426.38
             324.41,426.38 320.19,425.12 316.22,422.61
             312.25,420.10 308.99,416.86 306.45,412.89
             301.64,405.20 299.23,395.83 299.23,384.77
             299.23,377.48 302.03,369.40 307.62,360.55
             313.09,351.82 319.77,344.53 327.64,338.67
             336.11,332.42 344.12,329.30 351.67,329.30
             355.58,329.30 358.86,330.73 361.53,333.59
             364.01,336.40 365.25,339.59 365.25,343.17
             365.25,346.75 364.47,350.05 362.91,353.08
             361.34,356.10 359.30,359.04 356.80,361.91
             354.29,364.77 351.42,367.53 348.20,370.17
             344.98,372.81 341.68,375.26 338.30,377.53
             333.54,380.79 327.55,384.48 320.33,388.58
             322.41,396.45 326.09,402.53 331.36,406.80
             336.63,411.06 343.43,413.19 351.77,413.19
             358.80,413.19 366.02,411.11 373.45,406.94 Z
           M 343.95,367.77
           C 345.71,364.98 346.59,362.25 346.59,359.58
             346.59,356.90 346.30,354.64 345.70,352.78
             345.12,350.93 344.27,349.28 343.17,347.84
             340.63,344.59 337.34,342.97 333.31,342.97
             323.41,342.97 318.47,353.06 318.47,373.23
             318.47,376.82 318.76,380.37 319.34,383.89
             330.80,380.70 339.00,375.32 343.95,367.77 Z
           M 481.73,330.08
           C 473.85,341.66 464.30,347.45 453.11,347.45
             451.29,347.45 448.94,346.74 446.08,345.31
             440.61,342.57 436.91,341.20 435.00,341.20
             433.08,341.20 431.54,341.82 430.36,343.06
             429.19,344.30 428.22,346.03 427.44,348.23
             425.68,353.06 424.80,359.31 424.80,366.98
             424.80,366.98 424.80,404.39 424.80,404.39
             424.80,408.56 426.07,411.39 428.61,412.89
             429.52,413.48 430.65,413.77 432.02,413.77
             433.39,413.77 434.82,413.45 436.31,412.80
             435.01,413.96 433.74,415.34 432.50,416.94
             431.27,418.53 429.88,420.08 428.31,421.58
             424.60,425.16 420.21,426.95 415.12,426.95
             412.52,426.95 410.30,426.12 408.48,424.47
             406.66,422.80 405.75,420.77 405.75,418.36
             405.75,418.36 405.75,362.11 405.75,362.11
             405.75,359.83 405.78,357.55 405.84,355.28
             405.91,353.00 405.69,350.91 405.17,349.02
             403.93,344.92 400.38,342.88 394.52,342.88
             391.72,342.88 388.93,343.40 386.12,344.44
             387.81,343.84 389.99,342.31 392.67,339.84
             397.88,335.16 401.49,332.42 403.50,331.64
             407.66,330.14 411.04,329.39 413.61,329.39
             416.18,329.39 418.16,329.77 419.56,330.52
             420.97,331.27 422.06,332.29 422.84,333.59
             424.14,335.74 424.80,339.06 424.80,343.55
             426.68,342.12 428.74,340.51 430.98,338.72
             433.23,336.93 435.57,335.22 437.98,333.59
             443.77,329.75 448.82,327.83 453.11,327.83
             455.65,327.83 458.32,328.55 461.12,329.98
             463.93,331.41 466.01,332.45 467.38,333.11
             468.74,333.76 470.01,334.08 471.19,334.08
             473.79,334.08 477.30,332.75 481.73,330.08 Z
           M 531.00,349.22
           C 532.24,348.30 532.86,347.32 532.86,346.28
             532.86,345.24 532.24,344.43 531.00,343.84
             529.76,343.26 528.33,342.81 526.70,342.48
             524.16,341.96 521.80,341.70 519.62,341.70
             517.45,341.70 515.75,341.82 514.55,342.05
             513.34,342.27 512.31,342.67 511.47,343.27
             509.64,344.50 508.73,346.67 508.73,349.80
             508.73,352.92 509.41,355.48 510.78,357.47
             512.16,359.46 513.96,361.14 516.20,362.50
             518.45,363.87 521.01,365.01 523.88,365.92
             526.74,366.83 529.65,367.73 532.61,368.61
             535.58,369.48 538.49,370.45 541.36,371.48
             544.22,372.53 546.76,373.89 548.97,375.58
             553.98,379.23 556.48,384.24 556.48,390.62
             556.48,396.94 553.46,403.12 547.41,409.17
             542.26,414.32 535.49,418.68 527.09,422.27
             519.28,425.65 512.32,427.34 506.20,427.34
             498.77,427.34 492.82,425.78 488.33,422.66
             486.70,421.48 485.89,419.96 485.89,418.11
             485.89,416.26 486.73,414.56 488.42,413.03
             490.12,411.50 492.10,410.07 494.38,408.73
             496.66,407.40 498.94,406.14 501.22,404.94
             503.50,403.73 505.22,402.45 506.39,401.08
             505.22,402.38 504.64,403.84 504.64,405.47
             504.64,407.09 505.55,408.48 507.38,409.62
             509.20,410.76 511.34,411.65 513.81,412.30
             518.11,413.34 522.25,413.86 526.22,413.86
             530.19,413.86 533.07,413.13 534.86,411.67
             536.65,410.20 537.55,407.75 537.55,404.30
             537.55,400.85 536.86,398.04 535.48,395.86
             534.12,393.67 532.33,391.80 530.11,390.23
             527.90,388.67 525.36,387.36 522.50,386.28
             519.63,385.21 516.72,384.17 513.77,383.16
             510.80,382.15 507.89,381.12 505.03,380.08
             502.16,379.04 499.62,377.77 497.41,376.27
             492.46,372.95 489.98,368.62 489.98,363.28
             489.98,358.20 492.98,352.76 498.97,346.97
             504.18,342.02 509.61,338.15 515.28,335.34
             524.98,330.66 532.30,328.31 537.25,328.31
             542.39,328.31 546.10,328.87 548.38,329.98
             550.66,331.09 551.80,332.05 551.80,332.86
             551.80,333.67 551.54,334.41 551.02,335.06
             550.49,335.71 549.86,336.31 549.11,336.86
             548.37,337.41 547.61,337.92 546.83,338.38
             546.05,338.84 544.94,339.52 543.50,340.44
             542.07,341.34 540.15,342.56 537.73,344.09
             535.33,345.62 533.08,347.34 531.00,349.22 Z
           M 187.97,94.92
           C 195.39,88.73 199.82,85.62 201.23,85.62
             201.23,85.62 260.91,85.62 260.91,85.62
             260.27,85.72 259.30,86.34 258.00,87.48
             256.70,88.62 255.59,89.59 254.67,90.39
             253.77,91.18 252.88,91.90 252.02,92.53
             249.96,94.12 248.48,94.92 247.58,94.92
             247.58,94.92 214.08,94.92 214.08,94.92
             214.08,94.92 214.08,132.11 214.08,132.11
             214.08,132.11 247.23,132.11 247.23,132.11
             246.64,132.20 245.68,132.84 244.36,134.00
             243.04,135.16 241.91,136.12 241.00,136.91
             240.09,137.68 239.21,138.41 238.34,139.09
             236.34,140.69 234.86,141.48 233.91,141.48
             233.91,141.48 214.08,141.48 214.08,141.48
             214.08,141.48 214.08,157.47 214.08,157.47
             214.08,165.68 212.44,171.42 209.16,174.70
             209.16,174.70 231.09,174.70 231.09,174.70
             230.46,174.80 229.49,175.41 228.19,176.55
             226.89,177.68 225.79,178.65 224.88,179.45
             223.97,180.26 223.08,181.00 222.22,181.67
             220.16,183.23 218.68,184.00 217.77,184.00
             217.77,184.00 194.59,184.00 194.59,184.00
             198.70,177.62 200.75,172.17 200.75,167.66
             200.75,167.66 200.75,141.48 200.75,141.48
             200.75,141.48 191.17,141.48 191.17,141.48
             194.37,138.93 197.56,136.42 200.75,133.95
             200.75,133.95 200.75,94.92 200.75,94.92
             200.75,94.92 187.97,94.92 187.97,94.92 Z
           M 305.02,171.36
           C 298.77,178.33 291.02,182.68 281.77,184.41
             279.63,184.77 276.99,184.95 273.84,184.95
             270.70,184.95 267.73,184.08 264.95,182.33
             262.17,180.57 259.89,178.30 258.12,175.52
             254.75,170.14 253.06,163.58 253.06,155.83
             253.06,150.73 255.02,145.07 258.94,138.88
             262.77,132.77 267.44,127.67 272.95,123.56
             278.88,119.19 284.48,117.00 289.77,117.00
             292.50,117.00 294.80,118.01 296.67,120.02
             298.40,121.98 299.27,124.21 299.27,126.72
             299.27,129.22 298.72,131.53 297.62,133.66
             296.53,135.77 295.10,137.84 293.34,139.84
             291.59,141.84 289.59,143.77 287.33,145.62
             285.08,147.47 282.77,149.19 280.41,150.78
             277.07,153.05 272.88,155.62 267.83,158.50
             269.29,164.01 271.86,168.26 275.55,171.25
             279.24,174.24 284.01,175.73 289.84,175.73
             294.76,175.73 299.82,174.28 305.02,171.36 Z
           M 284.38,143.94
           C 285.60,141.98 286.22,140.07 286.22,138.20
             286.22,136.33 286.01,134.75 285.59,133.45
             285.19,132.15 284.60,131.00 283.83,130.00
             282.05,127.72 279.74,126.58 276.92,126.58
             269.99,126.58 266.53,133.64 266.53,147.77
             266.53,150.28 266.73,152.76 267.14,155.22
             275.16,152.99 280.91,149.23 284.38,143.94 Z
           M 351.61,125.89
           C 351.93,125.66 352.45,125.27 353.16,124.70
             353.86,124.13 354.66,123.51 355.55,122.83
             356.43,122.14 357.35,121.42 358.31,120.67
             359.27,119.91 360.18,119.23 361.05,118.64
             363.00,117.23 364.20,116.53 364.62,116.53
             365.06,116.53 365.60,117.03 366.23,118.03
             366.88,119.03 367.51,120.18 368.12,121.48
             368.74,122.79 369.29,124.04 369.77,125.25
             370.24,126.46 371.19,128.84 372.59,132.39
             376.24,141.51 379.91,153.49 383.61,168.34
             388.89,158.64 392.13,151.76 393.34,147.70
             394.55,143.64 395.16,140.80 395.16,139.19
             395.16,137.57 395.05,136.09 394.84,134.75
             394.64,133.41 394.32,132.14 393.86,130.95
             392.67,128.08 390.94,126.64 388.67,126.64
             387.58,126.64 386.50,126.94 385.45,127.53
             386.64,126.94 387.89,126.07 389.20,124.94
             390.52,123.80 391.88,122.69 393.25,121.59
             396.66,118.86 399.19,117.48 400.83,117.48
             402.47,117.48 403.74,117.81 404.62,118.45
             405.51,119.09 406.25,119.88 406.84,120.83
             407.94,122.70 408.48,125.17 408.48,128.22
             408.48,131.27 407.88,134.75 406.67,138.64
             405.46,142.54 403.93,146.40 402.06,150.23
             399.78,155.02 397.02,160.00 393.78,165.17
             390.55,170.34 388.62,173.47 387.98,174.56
             387.35,175.66 386.79,176.51 386.31,177.12
             385.83,177.74 385.30,178.29 384.70,178.77
             384.11,179.25 383.38,179.78 382.52,180.38
             381.65,180.97 380.71,181.61 379.70,182.30
             378.70,182.98 377.73,183.62 376.80,184.23
             375.87,184.85 375.02,185.41 374.27,185.91
             373.52,186.41 372.96,186.79 372.59,187.02
             368.91,171.42 365.58,159.32 362.62,150.70
             360.75,155.40 358.62,160.11 356.25,164.83
             353.88,169.55 352.41,172.58 351.81,173.92
             351.23,175.27 350.71,176.28 350.25,176.97
             349.79,177.65 349.27,178.21 348.67,178.67
             348.08,179.12 347.35,179.66 346.48,180.28
             345.62,180.90 344.67,181.56 343.64,182.27
             342.62,182.96 341.63,183.64 340.67,184.28
             338.71,185.51 337.32,186.42 336.50,187.02
             336.19,185.64 335.78,183.73 335.28,181.30
             334.78,178.86 334.16,176.09 333.44,173.00
             332.71,169.90 331.89,166.59 331.00,163.08
             330.11,159.57 329.12,156.09 328.03,152.66
             326.94,149.22 325.77,145.92 324.55,142.75
             323.32,139.59 321.99,136.79 320.58,134.38
             317.57,129.09 314.56,126.44 311.56,126.44
             310.14,126.44 308.75,126.90 307.39,127.81
             311.58,123.44 316.07,120.23 320.86,118.17
             322.59,117.45 324.00,117.08 325.09,117.08
             326.69,117.08 328.04,117.55 329.16,118.48
             330.27,119.41 331.44,120.97 332.67,123.16
             333.91,125.34 335.11,127.90 336.27,130.81
             337.43,133.73 338.56,136.84 339.66,140.16
             340.75,143.46 341.75,146.68 342.66,149.81
             343.94,154.24 345.30,159.28 346.77,164.92
             347.63,162.87 348.56,160.66 349.56,158.30
             350.56,155.92 351.49,153.51 352.36,151.05
             354.37,145.27 355.38,140.30 355.38,136.16
             355.38,132.00 354.12,128.58 351.61,125.89 Z
           M 330.31,245.11
           C 329.89,245.25 328.71,246.07 326.75,247.58
             324.79,249.08 323.15,250.42 321.83,251.61
             321.83,251.61 321.83,275.33 321.83,275.33
             316.55,282.08 309.12,287.80 299.55,292.48
             289.88,297.22 281.17,299.59 273.42,299.59
             265.68,299.59 259.02,298.44 253.44,296.14
             247.85,293.84 243.10,290.66 239.19,286.61
             231.21,278.23 227.22,267.17 227.22,253.45
             227.22,243.34 229.09,235.12 232.83,228.78
             238.25,219.12 246.62,211.00 257.92,204.44
             269.17,197.93 280.40,194.67 291.61,194.67
             299.32,194.67 307.09,195.86 314.92,198.22
             318.02,199.14 320.60,200.25 322.66,201.56
             323.10,201.89 323.33,202.23 323.33,202.59
             323.33,202.96 322.96,203.48 322.23,204.14
             321.50,204.80 320.58,205.55 319.47,206.39
             318.35,207.23 317.13,208.12 315.81,209.03
             314.49,209.94 313.24,210.78 312.06,211.55
             309.64,213.20 308.05,214.17 307.27,214.48
             307.32,214.35 307.48,214.17 307.75,213.94
             308.02,213.71 308.32,213.46 308.64,213.19
             309.41,212.46 309.80,211.87 309.80,211.41
             309.80,209.64 306.68,207.98 300.44,206.42
             293.78,204.73 286.69,203.89 279.17,203.89
             271.65,203.89 265.54,204.80 260.84,206.62
             256.16,208.45 252.30,211.09 249.30,214.56
             243.52,221.30 240.62,231.33 240.62,244.64
             240.62,257.54 244.45,268.25 252.11,276.77
             260.08,285.70 270.42,290.16 283.14,290.16
             290.80,290.16 297.56,289.16 303.44,287.16
             305.62,286.39 307.38,285.41 308.70,284.22
             308.70,284.22 308.70,254.48 308.70,254.48
             308.70,254.48 289.09,254.48 289.09,254.48
             289.09,254.48 291.69,252.30 291.69,252.30
             297.56,247.51 301.11,245.11 302.34,245.11
             302.34,245.11 330.31,245.11 330.31,245.11 Z
           M 395.03,237.94
           C 397.35,240.59 399.16,243.61 400.45,247.00
             401.75,250.40 402.41,253.80 402.41,257.22
             402.41,260.64 401.91,263.98 400.91,267.23
             399.91,270.48 398.50,273.62 396.70,276.62
             394.90,279.64 392.78,282.45 390.34,285.08
             387.91,287.70 385.23,289.98 382.31,291.94
             376.11,296.09 369.85,298.16 363.52,298.16
             356.09,298.16 349.77,295.27 344.58,289.48
             339.52,283.92 336.98,277.40 336.98,269.92
             336.98,263.55 338.92,257.15 342.80,250.72
             348.59,240.97 356.47,234.39 366.45,230.97
             369.64,229.82 373.01,229.25 376.56,229.25
             380.12,229.25 383.51,230.04 386.72,231.61
             389.94,233.18 392.71,235.29 395.03,237.94 Z
           M 362.69,238.42
           C 358.13,238.42 354.81,240.63 352.72,245.05
             351.07,248.51 350.25,252.42 350.25,256.80
             350.25,261.17 350.83,265.24 351.98,269.00
             353.15,272.76 354.88,276.12 357.16,279.09
             362.22,285.74 368.73,289.06 376.70,289.06
             381.36,289.06 384.73,286.74 386.83,282.09
             388.33,278.64 389.08,274.65 389.08,270.14
             389.08,261.34 386.63,253.86 381.73,247.69
             376.84,241.51 370.49,238.42 362.69,238.42 Z
           M 470.03,237.94
           C 472.35,240.59 474.16,243.61 475.45,247.00
             476.75,250.40 477.41,253.80 477.41,257.22
             477.41,260.64 476.91,263.98 475.91,267.23
             474.91,270.48 473.50,273.62 471.70,276.62
             469.90,279.64 467.78,282.45 465.34,285.08
             462.91,287.70 460.23,289.98 457.31,291.94
             451.11,296.09 444.85,298.16 438.52,298.16
             431.09,298.16 424.77,295.27 419.58,289.48
             414.52,283.92 411.98,277.40 411.98,269.92
             411.98,263.55 413.92,257.15 417.80,250.72
             423.59,240.97 431.47,234.39 441.45,230.97
             444.64,229.82 448.01,229.25 451.56,229.25
             455.12,229.25 458.51,230.04 461.72,231.61
             464.94,233.18 467.71,235.29 470.03,237.94 Z
           M 437.69,238.42
           C 433.13,238.42 429.81,240.63 427.72,245.05
             426.07,248.51 425.25,252.42 425.25,256.80
             425.25,261.17 425.83,265.24 426.98,269.00
             428.15,272.76 429.88,276.12 432.16,279.09
             437.22,285.74 443.73,289.06 451.70,289.06
             456.36,289.06 459.73,286.74 461.83,282.09
             463.33,278.64 464.08,274.65 464.08,270.14
             464.08,261.34 461.63,253.86 456.73,247.69
             451.84,241.51 445.49,238.42 437.69,238.42 Z
           M 509.83,234.80
           C 513.02,233.02 516.36,231.64 519.88,230.66
             523.38,229.68 526.34,229.19 528.75,229.19
             531.16,229.19 533.29,229.35 535.11,229.67
             535.11,229.67 535.11,207.25 535.11,207.25
             535.11,202.37 534.22,199.12 532.45,197.53
             531.63,196.80 530.62,196.44 529.44,196.44
             528.03,196.44 525.96,196.78 523.22,197.47
             534.66,188.76 543.04,183.04 548.38,180.31
             548.38,180.31 548.38,278.06 548.38,278.06
             548.38,281.75 548.77,284.19 549.55,285.38
             550.91,287.66 553.28,288.80 556.66,288.80
             558.02,288.80 559.36,288.66 560.69,288.39
             559.36,289.43 558.05,290.53 556.75,291.67
             555.45,292.81 554.09,293.86 552.69,294.81
             549.45,297.00 546.60,298.09 544.14,298.09
             541.68,298.09 539.91,297.86 538.84,297.41
             537.77,296.95 536.94,296.29 536.34,295.42
             535.44,294.10 534.98,291.62 534.98,287.97
             525.64,294.91 518.14,298.38 512.48,298.38
             504.15,298.38 497.77,295.59 493.34,290.03
             489.25,284.93 487.20,278.09 487.20,269.52
             487.20,262.50 489.39,255.80 493.77,249.42
             497.82,243.36 503.17,238.48 509.83,234.80 Z
           M 535.11,248.33
           C 533.07,245.05 530.41,242.56 527.12,240.88
             523.84,239.19 520.42,238.34 516.86,238.34
             513.30,238.34 510.48,238.95 508.39,240.16
             506.30,241.37 504.66,242.98 503.47,244.98
             501.41,248.45 500.39,252.78 500.39,258.00
             500.39,263.22 500.84,267.59 501.75,271.12
             502.66,274.66 504.10,277.77 506.06,280.45
             510.34,286.25 516.61,289.14 524.86,289.14
             526.64,289.14 528.39,288.62 530.12,287.56
             533.45,285.65 535.11,283.85 535.11,282.17
             535.11,282.17 535.11,248.33 535.11,248.33 Z" />
</svg>
