<?xml version="1.0" encoding="UTF-8" standalone="no"?>
<!DOCTYPE svg PUBLIC "-//W3C//DTD SVG 20010904//EN"
              "http://www.w3.org/TR/2001/REC-SVG-20010904/DTD/svg10.dtd">

<svg xmlns="http://www.w3.org/2000/svg"
     width="1.95667in" height="1.72in"
     viewBox="0 0 587 516">
  <path id="Good"
        fill="none" stroke="black" stroke-width="1"
        d="M 348.31,238.11
           C 347.89,238.25 346.71,239.07 344.75,240.58
             342.79,242.08 341.15,243.42 339.83,244.61
             339.83,244.61 339.83,268.33 339.83,268.33
             334.55,275.08 327.12,280.80 317.55,285.48
             307.88,290.22 299.17,292.59 291.42,292.59
             283.68,292.59 277.02,291.44 271.44,289.14
             265.85,286.84 261.10,283.66 257.19,279.61
             249.21,271.23 245.22,260.17 245.22,246.45
             245.22,236.34 247.09,228.12 250.83,221.78
             256.25,212.12 264.62,204.00 275.92,197.44
             287.17,190.93 298.40,187.67 309.61,187.67
             317.32,187.67 325.09,188.86 332.92,191.22
             336.02,192.14 338.60,193.25 340.66,194.56
             341.10,194.89 341.33,195.23 341.33,195.59
             341.33,195.96 340.96,196.48 340.23,197.14
             339.50,197.80 338.58,198.55 337.47,199.39
             336.35,200.23 335.13,201.12 333.81,202.03
             332.49,202.94 331.24,203.78 330.06,204.55
             327.64,206.20 326.05,207.17 325.27,207.48
             325.32,207.35 325.48,207.17 325.75,206.94
             326.02,206.71 326.32,206.46 326.64,206.19
             327.41,205.46 327.80,204.87 327.80,204.41
             327.80,202.64 324.68,200.98 318.44,199.42
             311.78,197.73 304.69,196.89 297.17,196.89
             289.65,196.89 283.54,197.80 278.84,199.62
             274.16,201.45 270.30,204.09 267.30,207.56
             261.52,214.30 258.62,224.33 258.62,237.64
             258.62,250.54 262.45,261.25 270.11,269.77
             278.08,278.70 288.42,283.16 301.14,283.16
             308.80,283.16 315.56,282.16 321.44,280.16
             323.62,279.39 325.38,278.41 326.70,277.22
             326.70,277.22 326.70,247.48 326.70,247.48
             326.70,247.48 307.09,247.48 307.09,247.48
             307.09,247.48 309.69,245.30 309.69,245.30
             315.56,240.51 319.11,238.11 320.34,238.11
             320.34,238.11 348.31,238.11 348.31,238.11 Z
           M 413.03,230.94
           C 415.35,233.59 417.16,236.61 418.45,240.00
             419.75,243.40 420.41,246.80 420.41,250.22
             420.41,253.64 419.91,256.98 418.91,260.23
             417.91,263.48 416.50,266.62 414.70,269.62
             412.90,272.64 410.78,275.45 408.34,278.08
             405.91,280.70 403.23,282.98 400.31,284.94
             394.11,289.09 387.85,291.16 381.52,291.16
             374.09,291.16 367.77,288.27 362.58,282.48
             357.52,276.92 354.98,270.40 354.98,262.92
             354.98,256.55 356.92,250.15 360.80,243.72
             366.59,233.97 374.47,227.39 384.45,223.97
             387.64,222.82 391.01,222.25 394.56,222.25
             398.12,222.25 401.51,223.04 404.72,224.61
             407.94,226.18 410.71,228.29 413.03,230.94 Z
           M 380.69,231.42
           C 376.13,231.42 372.81,233.63 370.72,238.05
             369.07,241.51 368.25,245.42 368.25,249.80
             368.25,254.17 368.83,258.24 369.98,262.00
             371.15,265.76 372.88,269.12 375.16,272.09
             380.22,278.74 386.73,282.06 394.70,282.06
             399.36,282.06 402.73,279.74 404.83,275.09
             406.33,271.64 407.08,267.65 407.08,263.14
             407.08,254.34 404.63,246.86 399.73,240.69
             394.84,234.51 388.49,231.42 380.69,231.42 Z
           M 488.03,230.94
           C 490.35,233.59 492.16,236.61 493.45,240.00
             494.75,243.40 495.41,246.80 495.41,250.22
             495.41,253.64 494.91,256.98 493.91,260.23
             492.91,263.48 491.50,266.62 489.70,269.62
             487.90,272.64 485.78,275.45 483.34,278.08
             480.91,280.70 478.23,282.98 475.31,284.94
             469.11,289.09 462.85,291.16 456.52,291.16
             449.09,291.16 442.77,288.27 437.58,282.48
             432.52,276.92 429.98,270.40 429.98,262.92
             429.98,256.55 431.92,250.15 435.80,243.72
             441.59,233.97 449.47,227.39 459.45,223.97
             462.64,222.82 466.01,222.25 469.56,222.25
             473.12,222.25 476.51,223.04 479.72,224.61
             482.94,226.18 485.71,228.29 488.03,230.94 Z
           M 455.69,231.42
           C 451.13,231.42 447.81,233.63 445.72,238.05
             444.07,241.51 443.25,245.42 443.25,249.80
             443.25,254.17 443.83,258.24 444.98,262.00
             446.15,265.76 447.88,269.12 450.16,272.09
             455.22,278.74 461.73,282.06 469.70,282.06
             474.36,282.06 477.73,279.74 479.83,275.09
             481.33,271.64 482.08,267.65 482.08,263.14
             482.08,254.34 479.63,246.86 474.73,240.69
             469.84,234.51 463.49,231.42 455.69,231.42 Z
           M 527.83,227.80
           C 531.02,226.02 534.36,224.64 537.88,223.66
             541.38,222.68 544.34,222.19 546.75,222.19
             549.16,222.19 551.29,222.35 553.11,222.67
             553.11,222.67 553.11,200.25 553.11,200.25
             553.11,195.37 552.22,192.12 550.45,190.53
             549.63,189.80 548.62,189.44 547.44,189.44
             546.03,189.44 543.96,189.78 541.22,190.47
             552.66,181.76 561.04,176.04 566.38,173.31
             566.38,173.31 566.38,271.06 566.38,271.06
             566.38,274.75 566.77,277.19 567.55,278.38
             568.91,280.66 571.28,281.80 574.66,281.80
             576.02,281.80 577.36,281.66 578.69,281.39
             577.36,282.43 576.05,283.53 574.75,284.67
             573.45,285.81 572.09,286.86 570.69,287.81
             567.45,290.00 564.60,291.09 562.14,291.09
             559.68,291.09 557.91,290.86 556.84,290.41
             555.77,289.95 554.94,289.29 554.34,288.42
             553.44,287.10 552.98,284.62 552.98,280.97
             543.64,287.91 536.14,291.38 530.48,291.38
             522.15,291.38 515.77,288.59 511.34,283.03
             507.25,277.93 505.20,271.09 505.20,262.52
             505.20,255.50 507.39,248.80 511.77,242.42
             515.82,236.36 521.17,231.48 527.83,227.80 Z
           M 553.11,241.33
           C 551.07,238.05 548.41,235.56 545.12,233.88
             541.84,232.19 538.42,231.34 534.86,231.34
             531.30,231.34 528.48,231.95 526.39,233.16
             524.30,234.37 522.66,235.98 521.47,237.98
             519.41,241.45 518.39,245.78 518.39,251.00
             518.39,256.22 518.84,260.59 519.75,264.12
             520.66,267.66 522.10,270.77 524.06,273.45
             528.34,279.25 534.61,282.14 542.86,282.14
             544.64,282.14 546.39,281.62 548.12,280.56
             551.45,278.65 553.11,276.85 553.11,275.17
             553.11,275.17 553.11,241.33 553.11,241.33 Z
           M 185.97,81.92
           C 193.39,75.73 197.82,72.62 199.23,72.62
             199.23,72.62 258.91,72.62 258.91,72.62
             258.27,72.72 257.30,73.34 256.00,74.48
             254.70,75.62 253.59,76.59 252.67,77.39
             251.77,78.18 250.88,78.90 250.02,79.53
             247.96,81.12 246.48,81.92 245.58,81.92
             245.58,81.92 212.08,81.92 212.08,81.92
             212.08,81.92 212.08,119.11 212.08,119.11
             212.08,119.11 245.23,119.11 245.23,119.11
             244.64,119.20 243.68,119.84 242.36,121.00
             241.04,122.16 239.91,123.12 239.00,123.91
             238.09,124.68 237.21,125.41 236.34,126.09
             234.34,127.69 232.86,128.48 231.91,128.48
             231.91,128.48 212.08,128.48 212.08,128.48
             212.08,128.48 212.08,144.47 212.08,144.47
             212.08,152.68 210.44,158.42 207.16,161.70
             207.16,161.70 229.09,161.70 229.09,161.70
             228.46,161.80 227.49,162.41 226.19,163.55
             224.89,164.68 223.79,165.65 222.88,166.45
             221.97,167.26 221.08,168.00 220.22,168.67
             218.16,170.23 216.68,171.00 215.77,171.00
             215.77,171.00 192.59,171.00 192.59,171.00
             196.70,164.62 198.75,159.17 198.75,154.66
             198.75,154.66 198.75,128.48 198.75,128.48
             198.75,128.48 189.17,128.48 189.17,128.48
             192.37,125.93 195.56,123.42 198.75,120.95
             198.75,120.95 198.75,81.92 198.75,81.92
             198.75,81.92 185.97,81.92 185.97,81.92 Z
           M 303.02,158.36
           C 296.77,165.33 289.02,169.68 279.77,171.41
             277.63,171.77 274.99,171.95 271.84,171.95
             268.70,171.95 265.73,171.08 262.95,169.33
             260.17,167.57 257.89,165.30 256.12,162.52
             252.75,157.14 251.06,150.58 251.06,142.83
             251.06,137.73 253.02,132.07 256.94,125.88
             260.77,119.77 265.44,114.67 270.95,110.56
             276.88,106.19 282.48,104.00 287.77,104.00
             290.50,104.00 292.80,105.01 294.67,107.02
             296.40,108.98 297.27,111.21 297.27,113.72
             297.27,116.22 296.72,118.53 295.62,120.66
             294.53,122.77 293.10,124.84 291.34,126.84
             289.59,128.84 287.59,130.77 285.33,132.62
             283.08,134.47 280.77,136.19 278.41,137.78
             275.07,140.05 270.88,142.62 265.83,145.50
             267.29,151.01 269.86,155.26 273.55,158.25
             277.24,161.24 282.01,162.73 287.84,162.73
             292.76,162.73 297.82,161.28 303.02,158.36 Z
           M 282.38,130.94
           C 283.60,128.98 284.22,127.07 284.22,125.20
             284.22,123.33 284.01,121.75 283.59,120.45
             283.19,119.15 282.60,118.00 281.83,117.00
             280.05,114.72 277.74,113.58 274.92,113.58
             267.99,113.58 264.53,120.64 264.53,134.77
             264.53,137.28 264.73,139.76 265.14,142.22
             273.16,139.99 278.91,136.23 282.38,130.94 Z
           M 349.61,112.89
           C 349.93,112.66 350.45,112.27 351.16,111.70
             351.86,111.13 352.66,110.51 353.55,109.83
             354.43,109.14 355.35,108.42 356.31,107.67
             357.27,106.91 358.18,106.23 359.05,105.64
             361.00,104.23 362.20,103.53 362.62,103.53
             363.06,103.53 363.60,104.03 364.23,105.03
             364.88,106.03 365.51,107.18 366.12,108.48
             366.74,109.79 367.29,111.04 367.77,112.25
             368.24,113.46 369.19,115.84 370.59,119.39
             374.24,128.51 377.91,140.49 381.61,155.34
             386.89,145.64 390.13,138.76 391.34,134.70
             392.55,130.64 393.16,127.80 393.16,126.19
             393.16,124.57 393.05,123.09 392.84,121.75
             392.64,120.41 392.32,119.14 391.86,117.95
             390.67,115.08 388.94,113.64 386.67,113.64
             385.58,113.64 384.50,113.94 383.45,114.53
             384.64,113.94 385.89,113.07 387.20,111.94
             388.52,110.80 389.88,109.69 391.25,108.59
             394.66,105.86 397.19,104.48 398.83,104.48
             400.47,104.48 401.74,104.81 402.62,105.45
             403.51,106.09 404.25,106.88 404.84,107.83
             405.94,109.70 406.48,112.17 406.48,115.22
             406.48,118.27 405.88,121.75 404.67,125.64
             403.46,129.54 401.93,133.40 400.06,137.23
             397.78,142.02 395.02,147.00 391.78,152.17
             388.55,157.34 386.62,160.47 385.98,161.56
             385.35,162.66 384.79,163.51 384.31,164.12
             383.83,164.74 383.30,165.29 382.70,165.77
             382.11,166.25 381.38,166.78 380.52,167.38
             379.65,167.97 378.71,168.61 377.70,169.30
             376.70,169.98 375.73,170.62 374.80,171.23
             373.87,171.85 373.02,172.41 372.27,172.91
             371.52,173.41 370.96,173.79 370.59,174.02
             366.91,158.42 363.58,146.32 360.62,137.70
             358.75,142.40 356.62,147.11 354.25,151.83
             351.88,156.55 350.41,159.58 349.81,160.92
             349.23,162.27 348.71,163.28 348.25,163.97
             347.79,164.65 347.27,165.21 346.67,165.67
             346.08,166.12 345.35,166.66 344.48,167.28
             343.62,167.90 342.67,168.56 341.64,169.27
             340.62,169.96 339.63,170.64 338.67,171.28
             336.71,172.51 335.32,173.42 334.50,174.02
             334.19,172.64 333.78,170.73 333.28,168.30
             332.78,165.86 332.16,163.09 331.44,160.00
             330.71,156.90 329.89,153.59 329.00,150.08
             328.11,146.57 327.12,143.09 326.03,139.66
             324.94,136.22 323.77,132.92 322.55,129.75
             321.32,126.59 319.99,123.79 318.58,121.38
             315.57,116.09 312.56,113.44 309.56,113.44
             308.14,113.44 306.75,113.90 305.39,114.81
             309.58,110.44 314.07,107.23 318.86,105.17
             320.59,104.45 322.00,104.08 323.09,104.08
             324.69,104.08 326.04,104.55 327.16,105.48
             328.27,106.41 329.44,107.97 330.67,110.16
             331.91,112.34 333.11,114.90 334.27,117.81
             335.43,120.73 336.56,123.84 337.66,127.16
             338.75,130.46 339.75,133.68 340.66,136.81
             341.94,141.24 343.30,146.28 344.77,151.92
             345.63,149.87 346.56,147.66 347.56,145.30
             348.56,142.92 349.49,140.51 350.36,138.05
             352.37,132.27 353.38,127.30 353.38,123.16
             353.38,119.00 352.12,115.58 349.61,112.89 Z
           M -1.84,302.39
           C 9.50,293.10 16.13,288.45 18.05,288.45
             18.05,288.45 133.72,288.45 133.72,288.45
             132.82,288.59 130.73,290.09 127.45,292.97
             124.17,295.84 121.88,297.78 120.59,298.80
             117.45,301.20 115.19,302.39 113.81,302.39
             113.81,302.39 71.78,302.39 71.78,302.39
             71.78,302.39 71.78,396.22 71.78,396.22
             71.78,404.49 70.38,411.32 67.58,416.72
             66.35,419.04 64.98,420.82 63.47,422.05
             63.47,422.05 97.31,422.05 97.31,422.05
             96.35,422.20 94.23,423.70 90.95,426.58
             87.67,429.45 85.38,431.39 84.08,432.41
             80.93,434.80 78.68,436.00 77.31,436.00
             77.31,436.00 41.62,436.00 41.62,436.00
             45.73,432.31 48.30,429.20 49.33,426.67
             50.96,422.64 51.78,417.59 51.78,411.50
             51.78,411.50 51.78,302.39 51.78,302.39
             51.78,302.39 -1.84,302.39 -1.84,302.39 Z
           M 195.22,405.64
           C 195.22,405.64 195.00,412.83 195.00,412.83
             195.00,418.16 196.50,421.55 199.52,422.98
             200.68,423.53 202.02,423.80 203.52,423.80
             205.91,423.80 208.38,423.25 210.91,422.16
             208.30,423.25 206.04,424.69 204.12,426.47
             202.22,428.24 200.27,429.98 198.28,431.69
             193.36,435.79 188.41,437.84 183.42,437.84
             178.43,437.84 175.77,434.98 175.42,429.23
             175.29,427.73 175.22,426.22 175.22,424.72
             162.91,433.26 151.63,437.53 141.38,437.53
             132.70,437.53 126.68,434.90 123.33,429.64
             122.10,427.73 121.48,425.09 121.48,421.75
             121.48,418.40 122.51,415.03 124.56,411.66
             126.61,408.27 129.21,405.17 132.36,402.36
             137.96,397.17 144.73,392.90 152.66,389.55
             158.54,387.02 166.09,385.59 175.31,385.25
             175.31,385.25 175.31,380.73 175.31,380.73
             175.31,369.86 174.32,362.51 172.34,358.69
             170.36,354.86 167.80,352.04 164.66,350.23
             161.51,348.42 157.82,347.52 153.58,347.52
             146.40,347.52 140.08,348.92 134.61,351.72
             142.13,345.49 147.63,341.39 151.12,339.41
             158.30,335.38 164.81,333.36 170.66,333.36
             176.50,333.36 180.89,334.21 183.83,335.92
             186.77,337.63 189.09,339.89 190.80,342.69
             193.74,347.62 195.22,354.70 195.22,363.92
             195.22,363.92 195.22,405.64 195.22,405.64 Z
           M 147.02,420.36
           C 148.66,421.56 150.58,422.43 152.77,422.98
             154.95,423.53 158.20,423.80 162.50,423.80
             166.81,423.80 171.08,422.77 175.31,420.72
             175.31,420.72 175.31,399.19 175.31,399.19
             175.31,399.19 158.70,399.19 158.70,399.19
             152.75,399.19 147.56,399.60 143.12,400.42
             142.24,403.36 141.80,406.16 141.80,408.83
             141.80,411.50 142.25,413.79 143.17,415.70
             144.10,417.61 145.38,419.16 147.02,420.36 Z
           M 228.81,347.09
           C 228.81,347.09 242.16,336.64 242.16,336.64
             242.16,336.64 242.16,322.08 242.16,322.08
             245.84,319.48 248.47,317.51 250.05,316.14
             251.62,314.77 252.95,313.77 254.05,313.16
             255.14,312.54 256.27,311.89 257.42,311.20
             260.37,309.50 261.94,308.48 262.14,308.14
             262.14,308.14 262.14,333.16 262.14,333.16
             262.14,333.16 294.95,333.16 294.95,333.16
             294.07,333.22 291.81,334.86 288.19,338.08
             281.28,344.09 276.91,347.09 275.06,347.09
             275.06,347.09 262.14,347.09 262.14,347.09
             262.14,347.09 262.14,402.06 262.14,402.06
             262.14,414.64 265.77,421.92 273.02,423.91
             275.20,424.45 277.25,424.72 279.17,424.72
             282.32,424.72 284.98,424.26 287.17,423.34
             289.36,422.42 291.16,421.58 292.59,420.83
             288.43,427.18 282.58,432.04 275.06,435.39
             271.16,437.10 266.98,437.95 262.50,437.95
             258.02,437.95 254.55,437.16 252.09,435.59
             249.63,434.02 247.66,431.97 246.16,429.44
             243.49,424.79 242.16,418.64 242.16,410.98
             242.16,410.98 242.16,347.09 242.16,347.09
             242.16,347.09 228.81,347.09 228.81,347.09 Z
           M 390.52,417.03
           C 381.15,427.49 369.53,434.02 355.66,436.61
             352.44,437.16 348.47,437.44 343.75,437.44
             339.04,437.44 334.60,436.12 330.42,433.50
             326.25,430.87 322.84,427.46 320.17,423.28
             315.12,415.22 312.59,405.38 312.59,393.75
             312.59,386.09 315.53,377.62 321.41,368.33
             327.14,359.16 334.15,351.51 342.42,345.36
             351.30,338.80 359.72,335.52 367.66,335.52
             371.75,335.52 375.20,337.02 378.02,340.02
             380.61,342.96 381.91,346.32 381.91,350.08
             381.91,353.84 381.08,357.31 379.44,360.48
             377.80,363.66 375.66,366.76 373.03,369.77
             370.41,372.77 367.40,375.65 364.02,378.42
             360.63,381.20 357.16,383.78 353.61,386.17
             348.62,389.59 342.33,393.45 334.73,397.75
             336.92,406.02 340.78,412.40 346.31,416.88
             351.85,421.36 359.00,423.59 367.75,423.59
             375.13,423.59 382.72,421.41 390.52,417.03 Z
           M 359.55,375.91
           C 361.39,372.97 362.31,370.10 362.31,367.30
             362.31,364.50 362.00,362.12 361.39,360.17
             360.77,358.23 359.89,356.50 358.73,355.00
             356.07,351.57 352.61,349.86 348.38,349.86
             337.98,349.86 332.78,360.46 332.78,381.66
             332.78,385.42 333.09,389.14 333.72,392.83
             345.75,389.48 354.36,383.84 359.55,375.91 Z
           M 505.47,336.33
           C 497.20,348.50 487.18,354.58 475.42,354.58
             473.50,354.58 471.04,353.83 468.03,352.33
             462.29,349.45 458.41,348.02 456.39,348.02
             454.38,348.02 452.76,348.67 451.53,349.97
             450.30,351.27 449.27,353.09 448.45,355.41
             446.61,360.46 445.69,367.02 445.69,375.09
             445.69,375.09 445.69,414.36 445.69,414.36
             445.69,418.73 447.02,421.71 449.69,423.28
             450.64,423.90 451.84,424.20 453.27,424.20
             454.70,424.20 456.21,423.87 457.78,423.19
             456.41,424.42 455.08,425.87 453.78,427.55
             452.48,429.21 451.01,430.84 449.38,432.41
             445.48,436.16 440.86,438.05 435.53,438.05
             432.80,438.05 430.48,437.18 428.56,435.44
             426.64,433.70 425.69,431.56 425.69,429.03
             425.69,429.03 425.69,369.97 425.69,369.97
             425.69,367.57 425.72,365.18 425.78,362.80
             425.85,360.40 425.62,358.21 425.08,356.22
             423.77,351.92 420.05,349.77 413.89,349.77
             410.95,349.77 408.02,350.31 405.08,351.41
             406.86,350.79 409.15,349.18 411.95,346.58
             417.42,341.66 421.21,338.79 423.33,337.97
             427.70,336.40 431.24,335.61 433.94,335.61
             436.64,335.61 438.73,336.01 440.20,336.80
             441.67,337.58 442.81,338.65 443.62,340.02
             445.00,342.28 445.69,345.77 445.69,350.48
             447.66,348.98 449.83,347.28 452.19,345.41
             454.55,343.53 457.00,341.73 459.53,340.02
             465.61,335.98 470.91,333.97 475.42,333.97
             478.09,333.97 480.89,334.73 483.83,336.23
             486.77,337.73 488.95,338.83 490.39,339.52
             491.83,340.20 493.16,340.53 494.39,340.53
             497.12,340.53 500.81,339.13 505.47,336.33 Z
           M 557.50,356.42
           C 558.80,355.48 559.45,354.45 559.45,353.36
             559.45,352.27 558.80,351.41 557.50,350.80
             556.20,350.17 554.69,349.70 552.98,349.36
             550.32,348.81 547.84,348.53 545.55,348.53
             543.27,348.53 541.49,348.65 540.22,348.89
             538.96,349.13 537.88,349.56 537.00,350.17
             535.08,351.48 534.12,353.77 534.12,357.05
             534.12,360.33 534.84,363.01 536.27,365.09
             537.70,367.18 539.60,368.94 541.95,370.38
             544.32,371.81 547.00,373.01 550.02,373.97
             553.02,374.93 556.08,375.87 559.19,376.80
             562.30,377.71 565.36,378.72 568.36,379.81
             571.37,380.91 574.04,382.34 576.38,384.11
             581.63,387.95 584.27,393.21 584.27,399.91
             584.27,406.54 581.09,413.04 574.73,419.39
             569.33,424.79 562.22,429.37 553.41,433.12
             545.20,436.69 537.88,438.47 531.45,438.47
             523.66,438.47 517.41,436.82 512.69,433.53
             510.98,432.30 510.12,430.71 510.12,428.77
             510.12,426.82 511.01,425.04 512.78,423.44
             514.56,421.84 516.65,420.34 519.05,418.94
             521.44,417.53 523.83,416.20 526.22,414.94
             528.61,413.67 530.43,412.31 531.66,410.88
             530.43,412.24 529.81,413.78 529.81,415.50
             529.81,417.21 530.77,418.66 532.69,419.86
             534.60,421.05 536.86,421.98 539.45,422.67
             543.96,423.77 548.30,424.31 552.47,424.31
             556.64,424.31 559.67,423.55 561.55,422.02
             563.43,420.48 564.38,417.89 564.38,414.27
             564.38,410.64 563.66,407.68 562.22,405.39
             560.78,403.10 558.90,401.14 556.58,399.50
             554.25,397.86 551.59,396.47 548.58,395.34
             545.57,394.22 542.50,393.12 539.39,392.06
             536.29,391.00 533.23,389.92 530.22,388.83
             527.22,387.73 524.55,386.40 522.23,384.83
             517.04,381.35 514.44,376.80 514.44,371.19
             514.44,365.87 517.58,360.16 523.88,354.08
             529.34,348.88 535.05,344.81 540.98,341.88
             551.17,336.95 558.86,334.48 564.06,334.48
             569.46,334.48 573.35,335.07 575.75,336.23
             578.14,337.39 579.34,338.40 579.34,339.25
             579.34,340.11 579.07,340.88 578.52,341.56
             577.97,342.25 577.30,342.89 576.52,343.47
             575.73,344.04 574.93,344.57 574.11,345.05
             573.29,345.53 572.12,346.25 570.62,347.20
             569.12,348.16 567.11,349.45 564.58,351.05
             562.05,352.65 559.69,354.45 557.50,356.42 Z
           M 53.83,257.81
           C 54.46,257.72 58.05,257.67 64.61,257.67
             75.84,257.67 84.12,256.82 89.47,255.11
             94.82,253.40 98.66,251.83 101.00,250.39
             97.68,252.91 94.62,255.25 91.84,257.41
             85.82,262.07 80.99,265.45 77.34,267.52
             73.71,269.58 70.09,271.17 66.50,272.30
             62.91,273.42 59.22,274.25 55.45,274.78
             49.88,275.59 42.29,276.00 32.67,276.00
             32.67,276.00 27.42,276.00 27.42,276.00
             27.51,275.91 27.57,275.82 27.62,275.73
             27.67,275.64 28.30,274.92 29.52,273.58
             30.73,272.23 32.49,270.27 34.83,267.72
             37.16,265.16 40.26,261.31 44.12,256.19
             47.99,251.06 52.19,244.46 56.72,236.38
             61.26,228.29 65.48,220.05 69.39,211.66
             73.30,203.25 77.06,194.73 80.66,186.11
             84.25,177.48 87.95,168.84 91.77,160.17
             95.59,151.50 99.47,142.73 103.42,133.89
             107.38,125.04 110.37,118.09 112.39,113.06
             114.41,108.03 115.58,104.89 115.89,103.64
             116.20,102.38 116.72,101.30 117.44,100.41
             117.44,100.41 107.20,100.41 107.20,100.41
             90.49,100.41 77.51,102.29 68.25,106.06
             80.64,95.28 91.02,88.50 99.39,85.70
             107.02,83.29 119.42,82.08 136.58,82.08
             136.58,82.08 143.72,82.08 143.72,82.08
             147.58,94.92 151.47,107.95 155.38,121.16
             159.28,134.37 163.21,147.57 167.17,160.78
             175.80,189.53 182.29,210.38 186.64,223.31
             191.00,236.25 193.57,243.95 194.33,246.42
             195.09,248.89 196.05,251.12 197.22,253.09
             199.82,257.41 204.00,259.56 209.75,259.56
             212.89,259.56 216.20,258.84 219.66,257.41
             223.11,255.97 225.79,254.67 227.69,253.50
             224.45,255.92 221.57,258.12 219.06,260.09
             212.59,265.04 208.46,268.08 206.66,269.20
             204.86,270.32 203.07,271.42 201.27,272.50
             199.47,273.57 197.59,274.56 195.61,275.45
             183.02,281.02 174.54,278.91 170.14,269.12
             166.99,262.21 163.22,251.14 158.81,235.91
             154.41,220.68 150.51,207.72 147.09,197.03
             139.54,202.42 123.10,204.93 97.77,204.58
             94.54,204.58 91.75,204.58 89.41,204.58
             79.26,224.88 69.38,240.38 59.77,251.06
             58.95,251.97 58.14,252.91 57.34,253.89
             55.00,256.59 53.83,257.90 53.83,257.81 Z
           M 99.92,185.84
           C 99.92,185.84 126.61,186.38 126.61,186.38
             132.18,186.38 137.84,186.20 143.59,185.84
             139.46,172.73 133.30,152.65 125.12,125.59
             116.23,145.99 107.20,166.21 98.03,186.25
             99.11,185.98 99.74,185.84 99.92,185.84 Z" />
</svg>
